<svg width="64" height="64" viewBox="0 0 64 64" fill="none" xmlns="http://www.w3.org/2000/svg">
  <!-- Main bag body - super rounded emoji style -->
  <path d="M32 6C22 6 14 10 12 16L10 26C8 32 8 38 10 44L12 54C14 60 22 64 32 64C42 64 50 60 52 54L54 44C56 38 56 32 54 26L52 16C50 10 42 6 32 6Z" fill="#10B981"/>
  
  <!-- Bag opening - wide and rounded -->
  <ellipse cx="32" cy="16" rx="16" ry="9" fill="#FCD34D"/>
  
  <!-- Drawstring loops - simple circles -->
  <circle cx="20" cy="16" r="3" fill="#F59E0B"/>
  <circle cx="44" cy="16" r="3" fill="#F59E0B"/>
  
  <!-- Dollar sign - bold and simple -->
  <circle cx="32" cy="42" r="12" fill="#FCD34D"/>
  <path d="M32 30V32M32 52V54M32 32C29 32 27 33 27 35C27 37 29 38 32 38C35 38 37 39 37 41C37 43 35 44 32 44M32 38C35 38 37 37 37 35C37 33 35 32 32 32" stroke="#059669" stroke-width="3.5" stroke-linecap="round" stroke-linejoin="round" fill="none"/>
  
  <!-- Emoji shine highlight -->
  <ellipse cx="26" cy="14" rx="5" ry="4" fill="#86EFAC" opacity="0.7"/>
  
  <!-- Simple bottom shadow -->
  <ellipse cx="32" cy="60" rx="12" ry="2" fill="#059669" opacity="0.15"/>
</svg>
